<svg width="380" height="228" viewBox="0 0 380 228" fill="none" xmlns="http://www.w3.org/2000/svg">
<path d="M29.0747 167.543C28.2569 168.421 27.3938 169.208 26.4852 169.905C25.6069 170.571 24.6529 171.162 23.6232 171.677C22.5934 172.161 21.4577 172.525 20.216 172.767C19.0045 173.04 17.6568 173.176 16.1728 173.176C13.8407 173.176 11.6904 172.752 9.72184 171.904C7.75324 171.056 6.04208 169.905 4.58835 168.451C3.1649 166.967 2.04431 165.226 1.22659 163.227C0.408863 161.228 0 159.078 0 156.776C0 154.504 0.393719 152.369 1.18116 150.37C1.99888 148.372 3.13461 146.63 4.58835 145.146C6.04208 143.632 7.76839 142.451 9.76727 141.603C11.7662 140.724 13.977 140.285 16.3999 140.285C17.8537 140.285 19.1711 140.406 20.3523 140.649C21.5637 140.891 22.6691 141.239 23.6686 141.693C24.668 142.117 25.5918 142.632 26.4398 143.238C27.2878 143.844 28.0904 144.51 28.8475 145.237L25.2586 149.371C23.9866 148.19 22.6389 147.236 21.2154 146.509C19.792 145.782 18.1717 145.419 16.3545 145.419C14.8402 145.419 13.4319 145.722 12.1296 146.327C10.8576 146.903 9.75213 147.705 8.81326 148.735C7.87439 149.734 7.14752 150.916 6.63266 152.278C6.11779 153.641 5.86036 155.11 5.86036 156.685C5.86036 158.26 6.11779 159.744 6.63266 161.137C7.14752 162.5 7.87439 163.696 8.81326 164.726C9.75213 165.756 10.8576 166.573 12.1296 167.179C13.4319 167.755 14.8402 168.042 16.3545 168.042C18.2928 168.042 19.9585 167.679 21.3517 166.952C22.7449 166.195 24.1229 165.18 25.4858 163.908L29.0747 167.543Z" fill="white"/>
<path d="M63.2047 140.603L77.1969 172.631H71.2911L68.0657 164.953H53.0286L49.7577 172.631H44.0336L58.0258 140.603H63.2047ZM66.0213 160.001L60.5244 147.281L55.0729 160.001H66.0213Z" fill="white"/>
<path d="M98.6984 149.144C98.6984 149.78 98.8044 150.325 99.0164 150.779C99.2284 151.234 99.607 151.658 100.152 152.051C100.728 152.445 101.5 152.808 102.469 153.142C103.468 153.475 104.725 153.823 106.24 154.186C107.905 154.61 109.374 155.08 110.646 155.595C111.949 156.11 113.024 156.746 113.872 157.503C114.72 158.23 115.356 159.093 115.78 160.092C116.234 161.061 116.461 162.212 116.461 163.545C116.461 165.059 116.173 166.407 115.598 167.588C115.053 168.769 114.281 169.769 113.281 170.586C112.282 171.404 111.085 172.025 109.692 172.449C108.299 172.873 106.77 173.085 105.104 173.085C102.651 173.085 100.304 172.676 98.0624 171.858C95.8212 171.01 93.7466 169.723 91.8386 167.997L95.2003 163.999C96.7449 165.332 98.3047 166.361 99.8795 167.088C101.454 167.785 103.241 168.133 105.24 168.133C106.966 168.133 108.329 167.77 109.329 167.043C110.359 166.316 110.873 165.332 110.873 164.09C110.873 163.515 110.767 163 110.555 162.545C110.374 162.091 110.01 161.682 109.465 161.319C108.95 160.925 108.223 160.562 107.285 160.229C106.376 159.895 105.18 159.547 103.696 159.184C102 158.79 100.485 158.351 99.1527 157.866C97.8504 157.382 96.7449 156.776 95.8363 156.049C94.9581 155.322 94.2766 154.444 93.792 153.414C93.3378 152.384 93.1106 151.128 93.1106 149.644C93.1106 148.25 93.3832 146.994 93.9283 145.873C94.4735 144.722 95.2155 143.738 96.1544 142.92C97.1235 142.102 98.2744 141.481 99.607 141.057C100.94 140.603 102.393 140.376 103.968 140.376C106.3 140.376 108.39 140.724 110.237 141.421C112.115 142.087 113.872 143.071 115.507 144.374L112.509 148.599C111.055 147.539 109.617 146.736 108.193 146.191C106.77 145.616 105.331 145.328 103.877 145.328C102.242 145.328 100.97 145.706 100.061 146.464C99.1527 147.19 98.6984 148.084 98.6984 149.144Z" fill="white"/>
<path d="M155.605 159.229H140.432V172.631H134.844V140.83H140.432V154.05H155.605V140.83H161.193V172.631H155.605V159.229Z" fill="white"/>
<path d="M230.271 140.83V145.918H212.19V154.595H228.227V159.683H212.19V172.631H206.603V140.83H230.271Z" fill="white"/>
<path d="M248.227 172.631V140.83H253.815V167.543H270.533V172.631H248.227Z" fill="white"/>
<path d="M318.193 156.685C318.193 158.926 317.784 161.046 316.966 163.045C316.148 165.044 314.997 166.801 313.513 168.315C312.029 169.799 310.273 170.98 308.244 171.858C306.214 172.737 303.973 173.176 301.52 173.176C299.067 173.176 296.826 172.752 294.797 171.904C292.767 171.026 291.026 169.844 289.572 168.36C288.118 166.876 286.983 165.135 286.165 163.136C285.347 161.137 284.938 159.017 284.938 156.776C284.938 154.535 285.347 152.415 286.165 150.416C286.983 148.417 288.134 146.676 289.618 145.192C291.102 143.677 292.858 142.481 294.887 141.603C296.917 140.724 299.158 140.285 301.611 140.285C304.064 140.285 306.305 140.724 308.334 141.603C310.364 142.451 312.105 143.617 313.559 145.101C315.013 146.585 316.148 148.326 316.966 150.325C317.784 152.324 318.193 154.444 318.193 156.685ZM312.332 156.776C312.332 155.231 312.06 153.778 311.514 152.415C311 151.022 310.258 149.81 309.288 148.78C308.35 147.751 307.214 146.933 305.881 146.327C304.549 145.722 303.095 145.419 301.52 145.419C299.945 145.419 298.491 145.722 297.159 146.327C295.857 146.903 294.736 147.705 293.797 148.735C292.858 149.734 292.116 150.931 291.571 152.324C291.056 153.687 290.799 155.14 290.799 156.685C290.799 158.23 291.056 159.699 291.571 161.092C292.116 162.455 292.858 163.651 293.797 164.681C294.766 165.71 295.917 166.528 297.25 167.134C298.582 167.74 300.036 168.042 301.611 168.042C303.186 168.042 304.624 167.755 305.927 167.179C307.259 166.573 308.395 165.771 309.334 164.771C310.273 163.742 311 162.545 311.514 161.183C312.06 159.789 312.332 158.321 312.332 156.776Z" fill="white"/>
<path d="M346.201 164.408L354.015 140.739H358.739L366.553 164.408L374.14 140.83H380L368.915 172.858H364.1L356.286 150.007L348.472 172.858H343.657L332.572 140.83H338.614L346.201 164.408Z" fill="white"/>
<path d="M88.6249 227.146V201.705H99.5279C105.961 201.705 110.104 205.013 110.104 210.646V210.719C110.104 216.715 105.488 219.877 99.1645 219.877H95.6755V227.146H88.6249ZM95.6755 214.353H99.0191C101.527 214.353 103.053 213.044 103.053 211.046V210.973C103.053 208.792 101.527 207.629 98.9828 207.629H95.6755V214.353Z" fill="white"/>
<path d="M135.321 227.655C127.471 227.655 121.656 221.803 121.656 214.498V214.426C121.656 207.121 127.543 201.197 135.393 201.197C143.244 201.197 149.059 207.048 149.059 214.353V214.426C149.059 221.731 143.171 227.655 135.321 227.655ZM135.393 221.294C139.282 221.294 141.863 218.169 141.863 214.498V214.426C141.863 210.755 139.209 207.557 135.321 207.557C131.468 207.557 128.888 210.682 128.888 214.353V214.426C128.888 218.096 131.541 221.294 135.393 221.294Z" fill="white"/>
<path d="M171.997 227.582C167.491 227.582 163.202 226.164 160.077 223.366L164.002 218.678C166.51 220.677 169.308 221.731 172.252 221.731C174.142 221.731 175.159 221.076 175.159 219.986V219.913C175.159 218.859 174.323 218.278 170.871 217.478C165.456 216.243 161.276 214.716 161.276 209.483V209.41C161.276 204.686 165.019 201.269 171.125 201.269C175.45 201.269 178.83 202.432 181.592 204.649L178.067 209.628C175.741 207.993 173.197 207.121 170.943 207.121C169.235 207.121 168.399 207.847 168.399 208.756V208.829C168.399 209.992 169.272 210.5 172.797 211.3C178.648 212.572 182.283 214.462 182.283 219.223V219.296C182.283 224.493 178.176 227.582 171.997 227.582Z" fill="white"/>
<path d="M195.306 227.146V201.705H202.393V227.146H195.306Z" fill="white"/>
<path d="M222.714 227.146V207.884H215.082V201.705H237.397V207.884H229.765V227.146H222.714Z" fill="white"/>
<path d="M250.086 227.146V201.705H257.173V227.146H250.086Z" fill="white"/>
<path d="M271.28 227.146V201.705H291.632V207.884H278.331V212.209H290.36V218.06H278.331V227.146H271.28Z" fill="white"/>
<path d="M148.597 110.325V60.6987C148.6 60.0568 148.787 59.4301 149.135 58.8966C149.483 58.3631 149.976 57.9465 150.552 57.6986L176.021 46.8033C176.503 46.6005 177.026 46.522 177.544 46.5748C178.063 46.6276 178.561 46.81 178.994 47.1061C179.428 47.4022 179.784 47.8028 180.032 48.2731C180.28 48.7433 180.412 49.2688 180.416 49.8035V110.325C180.41 111.185 180.075 112.007 179.483 112.615C178.891 113.223 178.089 113.567 177.252 113.573H151.761C150.922 113.573 150.117 113.231 149.524 112.622C148.93 112.013 148.597 111.186 148.597 110.325Z" fill="white"/>
<path d="M165.562 43.6675V33.9452C165.563 33.2969 165.752 32.6634 166.104 32.1252C166.456 31.587 166.956 31.1684 167.54 30.9225L178.528 26.411C179.108 26.1616 179.603 25.7415 179.951 25.2036C180.299 24.6657 180.484 24.0341 180.483 23.3883V10.8013C180.484 10.1379 180.682 9.49052 181.051 8.94611C181.42 8.4017 181.943 7.98642 182.549 7.75608L202.019 0.244457C202.504 0.0401962 203.031 -0.0378984 203.553 0.017114C204.075 0.0721264 204.575 0.258546 205.01 0.559812C205.445 0.861079 205.8 1.26787 206.045 1.7441C206.29 2.22032 206.417 2.75121 206.414 3.28969V94.7374H210.259V25.0576C210.259 24.496 210.4 23.944 210.67 23.4554C210.94 22.9667 211.328 22.5581 211.797 22.2696C212.267 21.981 212.801 21.8222 213.348 21.8087C213.895 21.7953 214.436 21.9276 214.918 22.1928L229.004 29.8623C229.509 30.14 229.931 30.5531 230.225 31.0576C230.519 31.5621 230.674 32.1391 230.674 32.7271V110.325C230.674 111.186 230.34 112.012 229.747 112.621C229.153 113.231 228.349 113.573 227.509 113.573H196.063C195.222 113.573 194.415 113.231 193.818 112.623C193.221 112.014 192.883 111.188 192.877 110.325V56.9763C192.892 56.1378 192.584 55.3271 192.02 54.7206L182.022 43.7126C181.575 43.2282 180.993 42.8969 180.356 42.7637C179.719 42.6305 179.058 42.7019 178.462 42.9682L170.067 46.645C169.587 46.853 169.065 46.9361 168.546 46.887C168.027 46.8379 167.528 46.6581 167.094 46.3635C166.659 46.0689 166.302 45.6687 166.054 45.1984C165.806 44.7281 165.675 44.2022 165.672 43.6675" fill="white"/>
</svg>
