<svg width="507" height="100" viewBox="0 0 507 100" fill="none" xmlns="http://www.w3.org/2000/svg">
<path d="M135.552 32.8C134.688 33.728 133.776 34.56 132.816 35.296C131.888 36 130.88 36.624 129.792 37.168C128.704 37.68 127.504 38.064 126.192 38.32C124.912 38.608 123.488 38.752 121.92 38.752C119.456 38.752 117.184 38.304 115.104 37.408C113.024 36.512 111.216 35.296 109.68 33.76C108.176 32.192 106.992 30.352 106.128 28.24C105.264 26.128 104.832 23.856 104.832 21.424C104.832 19.024 105.248 16.768 106.08 14.656C106.944 12.544 108.144 10.704 109.68 9.136C111.216 7.536 113.04 6.288 115.152 5.392C117.264 4.464 119.6 4 122.16 4C123.696 4 125.088 4.128 126.336 4.384C127.616 4.64 128.784 5.008 129.84 5.488C130.896 5.936 131.872 6.48 132.768 7.12C133.664 7.76 134.512 8.464 135.312 9.232L131.52 13.6C130.176 12.352 128.752 11.344 127.248 10.576C125.744 9.808 124.032 9.424 122.112 9.424C120.512 9.424 119.024 9.744 117.648 10.384C116.304 10.992 115.136 11.84 114.144 12.928C113.152 13.984 112.384 15.232 111.84 16.672C111.296 18.112 111.024 19.664 111.024 21.328C111.024 22.992 111.296 24.56 111.84 26.032C112.384 27.472 113.152 28.736 114.144 29.824C115.136 30.912 116.304 31.776 117.648 32.416C119.024 33.024 120.512 33.328 122.112 33.328C124.16 33.328 125.92 32.944 127.392 32.176C128.864 31.376 130.32 30.304 131.76 28.96L135.552 32.8Z" fill="white"/>
<path d="M171.614 4.336L186.398 38.176H180.158L176.75 30.064H160.862L157.406 38.176H151.358L166.142 4.336H171.614ZM174.59 24.832L168.782 11.392L163.022 24.832H174.59Z" fill="white"/>
<path d="M209.116 13.36C209.116 14.032 209.228 14.608 209.452 15.088C209.676 15.568 210.076 16.016 210.652 16.432C211.26 16.848 212.076 17.232 213.1 17.584C214.156 17.936 215.484 18.304 217.084 18.688C218.844 19.136 220.396 19.632 221.74 20.176C223.116 20.72 224.252 21.392 225.148 22.192C226.044 22.96 226.716 23.872 227.164 24.928C227.644 25.952 227.884 27.168 227.884 28.576C227.884 30.176 227.58 31.6 226.972 32.848C226.396 34.096 225.58 35.152 224.524 36.016C223.468 36.88 222.204 37.536 220.732 37.984C219.26 38.432 217.644 38.656 215.884 38.656C213.292 38.656 210.812 38.224 208.444 37.36C206.076 36.464 203.884 35.104 201.868 33.28L205.42 29.056C207.052 30.464 208.7 31.552 210.364 32.32C212.028 33.056 213.916 33.424 216.028 33.424C217.852 33.424 219.292 33.04 220.348 32.272C221.436 31.504 221.98 30.464 221.98 29.152C221.98 28.544 221.868 28 221.644 27.52C221.452 27.04 221.068 26.608 220.492 26.224C219.948 25.808 219.18 25.424 218.188 25.072C217.228 24.72 215.964 24.352 214.396 23.968C212.604 23.552 211.004 23.088 209.596 22.576C208.22 22.064 207.052 21.424 206.092 20.656C205.164 19.888 204.444 18.96 203.932 17.872C203.452 16.784 203.212 15.456 203.212 13.888C203.212 12.416 203.5 11.088 204.076 9.904C204.652 8.688 205.436 7.648 206.428 6.784C207.452 5.92 208.668 5.264 210.076 4.816C211.484 4.336 213.02 4.096 214.684 4.096C217.148 4.096 219.356 4.464 221.308 5.2C223.292 5.904 225.148 6.944 226.876 8.32L223.708 12.784C222.172 11.664 220.652 10.816 219.148 10.24C217.644 9.632 216.124 9.328 214.588 9.328C212.86 9.328 211.516 9.728 210.556 10.528C209.596 11.296 209.116 12.24 209.116 13.36Z" fill="white"/>
<path d="M269.243 24.016H253.211V38.176H247.307V4.576H253.211V18.544H269.243V4.576H275.147V38.176H269.243V24.016Z" fill="white"/>
<path d="M348.134 4.576V9.952H329.03V19.12H345.974V24.496H329.03V38.176H323.126V4.576H348.134Z" fill="white"/>
<path d="M367.106 38.176V4.576H373.01V32.8H390.674V38.176H367.106Z" fill="white"/>
<path d="M441.031 21.328C441.031 23.696 440.599 25.936 439.735 28.048C438.871 30.16 437.655 32.016 436.087 33.616C434.519 35.184 432.663 36.432 430.519 37.36C428.375 38.288 426.007 38.752 423.415 38.752C420.823 38.752 418.455 38.304 416.311 37.408C414.167 36.48 412.327 35.232 410.791 33.664C409.255 32.096 408.055 30.256 407.191 28.144C406.327 26.032 405.895 23.792 405.895 21.424C405.895 19.056 406.327 16.816 407.191 14.704C408.055 12.592 409.271 10.752 410.839 9.184C412.407 7.584 414.263 6.32 416.407 5.392C418.551 4.464 420.919 4 423.511 4C426.103 4 428.471 4.464 430.615 5.392C432.759 6.288 434.599 7.52 436.135 9.088C437.671 10.656 438.871 12.496 439.735 14.608C440.599 16.72 441.031 18.96 441.031 21.328ZM434.839 21.424C434.839 19.792 434.551 18.256 433.975 16.816C433.431 15.344 432.647 14.064 431.623 12.976C430.631 11.888 429.431 11.024 428.023 10.384C426.615 9.744 425.079 9.424 423.415 9.424C421.751 9.424 420.215 9.744 418.807 10.384C417.431 10.992 416.247 11.84 415.255 12.928C414.263 13.984 413.479 15.248 412.903 16.72C412.359 18.16 412.087 19.696 412.087 21.328C412.087 22.96 412.359 24.512 412.903 25.984C413.479 27.424 414.263 28.688 415.255 29.776C416.279 30.864 417.495 31.728 418.903 32.368C420.311 33.008 421.847 33.328 423.511 33.328C425.175 33.328 426.695 33.024 428.071 32.416C429.479 31.776 430.679 30.928 431.671 29.872C432.663 28.784 433.431 27.52 433.975 26.08C434.551 24.608 434.839 23.056 434.839 21.424Z" fill="white"/>
<path d="M470.624 29.488L478.88 4.48H483.872L492.128 29.488L500.144 4.576H506.336L494.624 38.416H489.536L481.28 14.272L473.024 38.416H467.936L456.224 4.576H462.608L470.624 29.488Z" fill="white"/>
<path d="M104.976 96.176V62.576H119.376C127.872 62.576 133.344 66.944 133.344 74.384V74.48C133.344 82.4 127.248 86.576 118.896 86.576H114.288V96.176H104.976ZM114.288 79.28H118.704C122.016 79.28 124.032 77.552 124.032 74.912V74.816C124.032 71.936 122.016 70.4 118.656 70.4H114.288V79.28Z" fill="#0084FF"/>
<path d="M166.649 96.848C156.281 96.848 148.601 89.12 148.601 79.472V79.376C148.601 69.728 156.377 61.904 166.745 61.904C177.113 61.904 184.793 69.632 184.793 79.28V79.376C184.793 89.024 177.017 96.848 166.649 96.848ZM166.745 88.448C171.881 88.448 175.289 84.32 175.289 79.472V79.376C175.289 74.528 171.785 70.304 166.649 70.304C161.561 70.304 158.153 74.432 158.153 79.28V79.376C158.153 84.224 161.657 88.448 166.745 88.448Z" fill="#0084FF"/>
<path d="M215.089 96.752C209.137 96.752 203.473 94.88 199.345 91.184L204.529 84.992C207.841 87.632 211.537 89.024 215.425 89.024C217.921 89.024 219.265 88.16 219.265 86.72V86.624C219.265 85.232 218.161 84.464 213.601 83.408C206.449 81.776 200.929 79.76 200.929 72.848V72.752C200.929 66.512 205.873 62 213.937 62C219.649 62 224.113 63.536 227.761 66.464L223.105 73.04C220.033 70.88 216.673 69.728 213.697 69.728C211.441 69.728 210.337 70.688 210.337 71.888V71.984C210.337 73.52 211.489 74.192 216.145 75.248C223.873 76.928 228.673 79.424 228.673 85.712V85.808C228.673 92.672 223.249 96.752 215.089 96.752Z" fill="#0084FF"/>
<path d="M245.874 96.176V62.576H255.234V96.176H245.874Z" fill="#0084FF"/>
<path d="M282.073 96.176V70.736H271.993V62.576H301.465V70.736H291.385V96.176H282.073Z" fill="#0084FF"/>
<path d="M318.224 96.176V62.576H327.584V96.176H318.224Z" fill="#0084FF"/>
<path d="M346.215 96.176V62.576H373.095V70.736H355.527V76.448H371.415V84.176H355.527V96.176H346.215Z" fill="#0084FF"/>
<path d="M0 97.1397V53.4442C0.0028501 52.879 0.167646 52.3271 0.473854 51.8574C0.780062 51.3877 1.21415 51.0208 1.72202 50.8026L24.1471 41.2094C24.5714 41.0308 25.0319 40.9617 25.4883 41.0082C25.9447 41.0547 26.383 41.2153 26.7649 41.476C27.1467 41.7367 27.4605 42.0895 27.6788 42.5035C27.8971 42.9176 28.0131 43.3802 28.0168 43.851V97.1397C28.0117 97.8966 27.7165 98.6211 27.1951 99.1563C26.6737 99.6916 25.968 99.9946 25.2306 99.9998H2.7862C2.04726 99.9998 1.33858 99.6985 0.816062 99.1621C0.293549 98.6257 0 97.8982 0 97.1397Z" fill="white"/>
<path d="M14.9365 38.4488V29.8885C14.9372 29.3177 15.103 28.7599 15.4131 28.286C15.7231 27.8121 16.1634 27.4435 16.6779 27.227L26.3522 23.2547C26.8631 23.0351 27.2993 22.6652 27.6057 22.1916C27.9122 21.7179 28.0752 21.1618 28.0742 20.5932V9.51046C28.0744 8.92636 28.2488 8.35632 28.5739 7.87698C28.8991 7.39763 29.3594 7.03197 29.893 6.82916L47.0359 0.215243C47.4632 0.0353924 47.9272 -0.0333692 48.3867 0.0150687C48.8461 0.0635067 49.2869 0.227647 49.6697 0.49291C50.0525 0.758173 50.3656 1.11635 50.5812 1.53566C50.7968 1.95497 50.9082 2.42242 50.9056 2.89654V83.4155H54.2916V22.063C54.2914 21.5686 54.416 21.0825 54.6534 20.6522C54.8907 20.222 55.2327 19.8623 55.6459 19.6082C56.0592 19.3541 56.5295 19.2143 57.011 19.2024C57.4926 19.1906 57.9689 19.3071 58.3935 19.5406L70.7959 26.2935C71.2405 26.538 71.6121 26.9017 71.871 27.346C72.13 27.7902 72.2666 28.2983 72.2664 28.8159V97.1399C72.2664 97.8984 71.9729 98.6259 71.4503 99.1623C70.9278 99.6986 70.2192 99.9999 69.4802 99.9999H41.7924C41.0516 100 40.3409 99.6993 39.8154 99.1635C39.2898 98.6277 38.9919 97.9003 38.9868 97.1399V50.1672C39.0002 49.4289 38.729 48.7151 38.2322 48.181L29.4286 38.4886C29.035 38.0621 28.523 37.7704 27.9622 37.6531C27.4013 37.5358 26.819 37.5987 26.2942 37.8331L18.903 41.0706C18.4804 41.2537 18.0203 41.3269 17.5636 41.2836C17.1068 41.2404 16.6675 41.082 16.2847 40.8227C15.9019 40.5633 15.5873 40.2109 15.369 39.7968C15.1507 39.3827 15.0354 38.9197 15.0333 38.4488" fill="white"/>
</svg>
