<svg width="73" height="100" viewBox="0 0 73 100" fill="none" xmlns="http://www.w3.org/2000/svg">
<path d="M0 97.1397V53.4442C0.00285011 52.879 0.167646 52.3271 0.473854 51.8574C0.780063 51.3877 1.21415 51.0209 1.72202 50.8026L24.1471 41.2094C24.5714 41.0308 25.0319 40.9617 25.4883 41.0082C25.9447 41.0547 26.383 41.2153 26.7649 41.476C27.1468 41.7367 27.4606 42.0895 27.6788 42.5035C27.8971 42.9176 28.0131 43.3803 28.0168 43.851V97.1397C28.0117 97.8967 27.7165 98.6211 27.1951 99.1564C26.6737 99.6916 25.968 99.9946 25.2306 99.9998H2.7862C2.04726 99.9998 1.33858 99.6985 0.816062 99.1621C0.293549 98.6257 0 97.8983 0 97.1397Z" fill="white"/>
<path d="M14.9375 38.4489V29.8885C14.9381 29.3177 15.104 28.7599 15.4141 28.286C15.7241 27.8122 16.1644 27.4435 16.6789 27.227L26.3532 23.2547C26.8641 23.0351 27.3003 22.6652 27.6067 22.1916C27.9132 21.718 28.0762 21.1618 28.0752 20.5933V9.51047C28.0754 8.92636 28.2498 8.35633 28.5749 7.87698C28.9001 7.39763 29.3604 7.03198 29.894 6.82917L47.0368 0.215243C47.4642 0.0353924 47.9282 -0.0333693 48.3877 0.0150687C48.8471 0.0635067 49.2879 0.227647 49.6707 0.49291C50.0535 0.758173 50.3666 1.11635 50.5822 1.53566C50.7978 1.95497 50.9092 2.42242 50.9066 2.89654V83.4156H54.2926V22.063C54.2924 21.5686 54.417 21.0825 54.6544 20.6523C54.8917 20.222 55.2337 19.8623 55.6469 19.6082C56.0602 19.3541 56.5305 19.2143 57.012 19.2024C57.4936 19.1906 57.9699 19.3071 58.3945 19.5406L70.7969 26.2935C71.2415 26.538 71.6131 26.9017 71.872 27.346C72.131 27.7902 72.2677 28.2983 72.2674 28.816V97.14C72.2674 97.8985 71.9739 98.626 71.4514 99.1623C70.9288 99.6987 70.2202 100 69.4812 100H41.7934C41.0526 100 40.3419 99.6993 39.8163 99.1635C39.2908 98.6277 38.9929 97.9003 38.9878 97.14V50.1672C39.0012 49.4289 38.73 48.7151 38.2332 48.181L29.4296 38.4886C29.036 38.0621 28.524 37.7704 27.9631 37.6531C27.4023 37.5358 26.8199 37.5987 26.2951 37.8332L18.904 41.0706C18.4814 41.2537 18.0213 41.3269 17.5645 41.2836C17.1078 41.2404 16.6685 41.0821 16.2857 40.8227C15.9028 40.5633 15.5883 40.211 15.37 39.7969C15.1517 39.3828 15.0364 38.9197 15.0342 38.4489" fill="white"/>
</svg>
